<?xml version="1.0" standalone="no"?>
<!DOCTYPE svg PUBLIC "-//W3C//DTD SVG 20010904//EN"
 "http://www.w3.org/TR/2001/REC-SVG-20010904/DTD/svg10.dtd">
<svg version="1.0" xmlns="http://www.w3.org/2000/svg"
 width="860.000000pt" height="1008.000000pt" viewBox="0 0 860.000000 1008.000000"
 preserveAspectRatio="xMidYMid meet">

<g transform="translate(0.000000,1008.000000) scale(0.100000,-0.100000)"
fill="#FE8615" stroke="none">
<path d="M1546 9669 c-151 -20 -335 -80 -471 -154 -251 -137 -515 -407 -639
-653 -113 -225 -159 -505 -121 -737 16 -98 81 -345 94 -358 6 -6 211 72 229
88 2 2 -4 62 -13 135 -13 106 -14 147 -5 213 22 161 81 280 186 376 115 105
251 146 454 138 154 -7 273 -34 519 -116 358 -121 502 -146 775 -138 251 7
498 47 858 138 64 16 122 29 127 29 6 0 -48 -60 -120 -132 -388 -392 -640
-755 -752 -1083 -131 -383 -190 -974 -136 -1356 12 -82 19 -152 16 -155 -3 -3
-50 4 -104 15 -286 59 -492 52 -721 -24 -229 -77 -464 -242 -660 -463 l-63
-70 83 -70 82 -69 73 48 c85 55 201 102 306 125 84 18 290 20 389 5 398 -64
641 -336 723 -812 15 -88 37 -340 30 -347 -2 -2 -21 8 -42 21 -202 128 -476
209 -648 192 -192 -19 -403 -136 -594 -329 -74 -75 -74 -72 4 -160 l43 -49 94
26 c134 38 221 50 311 42 283 -24 520 -192 657 -465 73 -147 100 -263 100
-435 0 -280 -99 -576 -290 -862 -116 -175 -196 -270 -385 -458 -262 -263 -527
-475 -894 -716 -105 -68 -190 -128 -191 -132 0 -4 34 -61 75 -126 l76 -119 92
50 c51 28 172 90 270 139 1399 701 2653 915 3772 644 558 -135 1126 -404 1619
-768 l89 -66 71 67 c39 37 359 334 711 661 352 327 648 601 657 610 16 15 10
24 -89 131 -58 63 -109 116 -113 118 -4 2 -137 -118 -295 -266 l-288 -269
-101 77 c-460 350 -952 579 -1471 684 -677 137 -1294 89 -2210 -173 -76 -22
-140 -39 -141 -38 -1 1 102 92 229 202 646 559 1065 979 1340 1343 372 491
538 973 578 1679 17 303 -6 666 -111 1708 -73 738 -81 847 -70 994 21 267 73
437 186 607 179 270 538 442 1085 519 55 7 103 16 106 18 2 3 -25 69 -61 148
l-65 144 -228 0 c-304 -1 -528 -30 -778 -102 -552 -158 -977 -506 -1210 -988
-172 -356 -237 -750 -215 -1298 9 -216 23 -386 115 -1341 56 -578 61 -675 47
-899 -56 -878 -360 -1588 -964 -2247 -186 -202 -501 -475 -738 -639 l-94 -65
64 90 c236 334 432 656 590 969 413 814 509 1449 415 2730 -20 264 -37 451
-91 980 -81 791 -71 1099 50 1459 117 349 386 675 888 1074 l117 93 -56 92
c-31 51 -58 94 -60 96 -1 2 -69 -28 -150 -66 -195 -93 -399 -173 -564 -221
-393 -115 -594 -101 -1149 84 -620 207 -949 269 -1234 233z"/>
</g>
</svg>
